<svg xmlns="http://www.w3.org/2000/svg" viewBox="0 0 48 48">
  <circle cx="24" cy="24" r="24" fill="#0e3b3b"/>
  <path d="M5 31c6-7 12-9 18-6" fill="none" stroke="#3f9491" stroke-width="2.6" stroke-linecap="round"/>
  <path d="M7 35c6-6 12-8 17-5" fill="none" stroke="#70b5b2" stroke-width="2.2" stroke-linecap="round"/>
  <path d="M19 21c5-6 14-7 21-4 0 5-3 9-8 11-4.5 1.8-9.5 1-13-2Z" fill="#e8791f"/>
  <path d="M19 21c-1.1 1-1.7 2.4-1.8 4 1.6-.2 2.8-1.2 3.4-2.6-.4-.6-1-1.1-1.6-1.4Z" fill="#f6b26b"/>
  <circle cx="33" cy="19.5" r="1.3" fill="#0e3b3b"/>
</svg>
