<svg xmlns="http://www.w3.org/2000/svg" viewBox="0 0 1200 630" width="1200" height="630">
  <defs>
    <radialGradient id="glow" cx="50%" cy="92%" r="60%">
      <stop offset="0%" stop-color="#cf4420" stop-opacity="0.45"/>
      <stop offset="60%" stop-color="#cf4420" stop-opacity="0"/>
    </radialGradient>
  </defs>
  <rect width="1200" height="630" fill="#1a1613"/>
  <rect width="1200" height="630" fill="url(#glow)"/>

  <!-- tree -->
  <g transform="translate(890,150)">
    <circle cx="90" cy="90" r="86" fill="#285039"/>
    <circle cx="32" cy="112" r="52" fill="#21402f"/>
    <circle cx="148" cy="112" r="54" fill="#21402f"/>
    <circle cx="90" cy="66" r="62" fill="#356449"/>
    <circle cx="58" cy="92" r="38" fill="#4c8462"/>
    <circle cx="128" cy="96" r="34" fill="#4c8462"/>
    <path d="M80 158c2 34-4 60-12 92h44c-8-32-14-58-12-92l-6-10h-8l-6 10Z" fill="#6d5233"/>
    <rect x="40" y="300" width="100" height="50" rx="10" fill="#241e19"/>
    <circle cx="70" cy="328" r="5" fill="#e8663a"/>
    <circle cx="90" cy="330" r="6" fill="#cf4420"/>
    <circle cx="110" cy="328" r="5" fill="#e8a13c"/>
  </g>

  <!-- text -->
  <text x="90" y="200" font-family="Georgia, 'Zilla Slab', serif" font-weight="700" font-size="46" fill="#e8663a" letter-spacing="4">GUN BAY · EAST END · GRAND CAYMAN</text>
  <text x="86" y="320" font-family="Georgia, 'Zilla Slab', serif" font-weight="700" font-size="118" fill="#f7f1e6">Big Tree BBQ</text>
  <text x="90" y="400" font-family="Georgia, serif" font-size="42" fill="#c3b9a8">Slow-smoked under the big tree</text>
  <text x="90" y="452" font-family="Georgia, serif" font-size="42" fill="#c3b9a8">since 2015.</text>
  <text x="90" y="558" font-family="Georgia, serif" font-weight="700" font-size="34" fill="#e8a13c">★ 4.8</text>
  <text x="180" y="558" font-family="Georgia, serif" font-size="34" fill="#c3b9a8">· ~737 TripAdvisor reviews · 345-938-8314</text>
</svg>
